<?xml version="1.0" encoding="UTF-8" standalone="no"?>
<!-- Created with Inkscape (http://www.inkscape.org/) -->

<svg
   width="210mm"
   height="210mm"
   viewBox="0 0 210 210"
   version="1.1"
   id="svg1"
   inkscape:version="1.4 (e7c3feb1, 2024-10-09)"
   sodipodi:docname="icon.svg"
   xml:space="preserve"
   inkscape:export-filename="icon.png"
   inkscape:export-xdpi="96"
   inkscape:export-ydpi="96"
   xmlns:inkscape="http://www.inkscape.org/namespaces/inkscape"
   xmlns:sodipodi="http://sodipodi.sourceforge.net/DTD/sodipodi-0.dtd"
   xmlns:xlink="http://www.w3.org/1999/xlink"
   xmlns="http://www.w3.org/2000/svg"
   xmlns:svg="http://www.w3.org/2000/svg"><sodipodi:namedview
     id="namedview1"
     pagecolor="#ffffff"
     bordercolor="#000000"
     borderopacity="0.25"
     inkscape:showpageshadow="2"
     inkscape:pageopacity="0.0"
     inkscape:pagecheckerboard="0"
     inkscape:deskcolor="#d1d1d1"
     inkscape:document-units="mm"
     inkscape:zoom="0.78216891"
     inkscape:cx="397.61233"
     inkscape:cy="324.73804"
     inkscape:window-width="1872"
     inkscape:window-height="1027"
     inkscape:window-x="54"
     inkscape:window-y="25"
     inkscape:window-maximized="1"
     inkscape:current-layer="layer1" /><defs
     id="defs1"><linearGradient
       id="linearGradient10"
       inkscape:collect="always"><stop
         style="stop-color:#fff400;stop-opacity:1;"
         offset="0"
         id="stop10" /><stop
         style="stop-color:#ffffff;stop-opacity:1;"
         offset="1"
         id="stop11" /></linearGradient><linearGradient
       id="linearGradient8"
       inkscape:collect="always"><stop
         style="stop-color:#a3f80c;stop-opacity:1;"
         offset="0"
         id="stop8" /><stop
         style="stop-color:#a3f80c;stop-opacity:0;"
         offset="1"
         id="stop9" /></linearGradient><clipPath
       clipPathUnits="userSpaceOnUse"
       id="clipPath7"><rect
         style="fill:#000000;stroke:#000000;stroke-width:0.733515;stroke-dasharray:none;stroke-opacity:1"
         id="rect7"
         width="50.59137"
         height="23.9527"
         x="79.18708"
         y="117.58059" /></clipPath><linearGradient
       inkscape:collect="always"
       xlink:href="#linearGradient8"
       id="linearGradient9"
       x1="107.52769"
       y1="117.74236"
       x2="107.52769"
       y2="152.66441"
       gradientUnits="userSpaceOnUse"
       gradientTransform="translate(1.6091919)" /><linearGradient
       inkscape:collect="always"
       xlink:href="#linearGradient10"
       id="linearGradient11"
       x1="95.363037"
       y1="117.52037"
       x2="114.80608"
       y2="131.55852"
       gradientUnits="userSpaceOnUse"
       spreadMethod="reflect" /></defs><g
     inkscape:groupmode="layer"
     id="layer2"
     inkscape:label="Layer 2"><rect
       style="fill:url(#linearGradient9);stroke:none;stroke-width:0.499999;stroke-dasharray:none;stroke-opacity:1"
       id="rect8"
       width="139.80782"
       height="35.280846"
       x="35.096092"
       y="117.32375" /></g><g
     inkscape:label="Layer 1"
     inkscape:groupmode="layer"
     id="layer1"><path
       style="fill:#000000;stroke:#000000;stroke-width:0.5;stroke-dasharray:none;stroke-opacity:1"
       d="M 34.97836,117.37927 H 175.02164"
       id="path1" /><path
       style="fill:#000000;stroke-width:0.264583"
       d="M 33.963557,109.59909 H 176.03644"
       id="path2" /><path
       style="fill:#000000;stroke:#000000;stroke-width:0.5;stroke-dasharray:none;stroke-opacity:1"
       d="M 34.97836,152.55922 H 175.02164"
       id="path3" /><path
       style="fill:#000000;stroke:#000000;stroke-width:0.499999;stroke-dasharray:none;stroke-opacity:1"
       d="M 65.313213,117.44335 65.193616,152.6046"
       id="path4" /><path
       style="fill:#000000;stroke:#000000;stroke-width:0.499999;stroke-dasharray:none;stroke-opacity:1"
       d="m 144.80638,117.27422 -0.1196,35.16125"
       id="path5" /><ellipse
       style="fill:url(#linearGradient11);fill-opacity:1;stroke:#000000;stroke-width:0.747327;stroke-dasharray:none;stroke-opacity:1"
       id="path6"
       cx="105"
       cy="122.03047"
       rx="21.440971"
       ry="13.660789"
       clip-path="url(#clipPath7)"
       transform="matrix(1,0,0,1.0274504,0,-3.7350426)" /></g><g
     inkscape:groupmode="layer"
     id="layer3"
     inkscape:label="Layer 3"><path
       d="m 87.104652,41.753088 c -16.191958,1.779978 -28.575827,9.402098 -28.575827,9.402098 l 4.143366,29.132032 c -1.730767,-0.395059 -3.747729,-0.259706 -5.706908,0.504901 -4.223931,1.648143 -6.581571,5.592586 -5.265637,8.811491 1.315931,3.218896 5.806628,4.492717 10.03014,2.845108 3.982558,-1.554021 6.304501,-5.149738 5.454222,-8.253005 L 64.081504,62.429745 c 0,0 8.886554,-4.482143 20.883375,-6.998394 l 2.307526,16.188712 c -1.708861,-0.368798 -3.685966,-0.225863 -5.609355,0.524642 -4.223998,1.647688 -6.581638,5.592131 -5.265636,8.811491 1.315452,3.218974 5.806074,4.492331 10.030073,2.844653 3.688204,-1.439074 5.953041,-4.629466 5.592575,-7.557974 l 0.0013,0.0018 z"
       fill="#000000"
       id="path1-6"
       style="stroke-width:0.477537" /><path
       d="M 165.61926,63.244918 C 153.64878,52.197054 139.77008,47.856711 139.77008,47.856711 l -19.2594,22.246757 c -0.83793,-1.565084 -2.26387,-2.997958 -4.12665,-3.97423 -4.01582,-2.10502 -8.53917,-1.294834 -10.10398,1.810707 -1.56482,3.105529 0.4216,7.329643 4.43674,9.434699 3.7864,1.984695 8.02322,1.37646 9.80642,-1.301865 L 134.9084,59.446014 c 0,0 9.21426,3.762684 18.98675,11.162242 L 143.196,82.974624 c -0.84337,-1.531324 -2.24888,-2.929153 -4.07752,-3.887676 -4.01552,-2.105371 -8.53887,-1.29518 -10.10398,1.810708 -1.56519,3.10522 0.42153,7.328976 4.43705,9.434356 3.50646,1.83806 7.4,1.45277 9.37284,-0.74131 l -5.4e-4,0.002 z"
       fill="#000000"
       id="path11"
       style="stroke-width:0.477537" /></g></svg>
